Coordinates
version=1
nRows=49
nColumns=12
inDegrees=yes

Units are S.I. units (second, meters, Newtons, ...)
Angles are in degrees

endheader
time	SC_y	SC_z	SC_x	AC_y	AC_z	AC_x	GH_y	GH_z	GH_yy	EL_x	PS_y
       0.0              -58.97          37.25          45.29          51.49         -19.82         -11.42         -138.5          24.22         -16.77          59.68          144.2
    0.0393              -58.97          37.24          45.29          51.49         -19.81         -11.41         -138.4          24.23         -16.74          59.67          144.2
    0.0786              -58.97          37.24          45.29          51.49         -19.81         -11.41         -138.4          24.23         -16.72          59.67          144.2
    0.1179              -58.96          37.24           45.3          51.48         -19.81         -11.41         -138.4          24.24         -16.69          59.66          144.2
    0.1572              -58.96          37.23           45.3          51.48         -19.81         -11.41         -138.4          24.25         -16.65          59.65          144.2
    0.1965              -58.96          37.23           45.3          51.48          -19.8         -11.41         -138.4          24.26         -16.62          59.64          144.2
    0.2358              -58.95          37.23          45.31          51.48          -19.8         -11.41         -138.3          24.27         -16.58          59.63          144.2
    0.2751              -58.95          37.22          45.31          51.47          -19.8         -11.41         -138.3          24.27         -16.54          59.62          144.2
    0.3144              -58.94          37.22          45.32          51.47         -19.79         -11.41         -138.3          24.28          -16.5          59.62          144.2
    0.3537              -58.94          37.21          45.32          51.47         -19.79          -11.4         -138.3          24.29         -16.45           59.6          144.2
     0.393              -58.93          37.21          45.33          51.46         -19.78          -11.4         -138.2          24.31         -16.41          59.59          144.2
    0.4323              -58.93           37.2          45.33          51.46         -19.78          -11.4         -138.2          24.32         -16.35          59.58          144.2
    0.4716              -58.92          37.19          45.34          51.45         -19.77          -11.4         -138.2          24.33          -16.3          59.57          144.2
    0.5109              -58.91          37.19          45.35          51.45         -19.77          -11.4         -138.1          24.35         -16.24          59.55          144.2
    0.5502               -58.9          37.18          45.35          51.45         -19.76         -11.39         -138.1          24.36         -16.17          59.54          144.2
    0.5895               -58.9          37.17          45.36          51.44         -19.75         -11.39         -138.0          24.38          -16.1          59.52          144.2
    0.6288              -58.89          37.16          45.37          51.43         -19.75         -11.39         -138.0          24.39         -16.02           59.5          144.2
    0.6681              -58.88          37.15          45.38          51.43         -19.74         -11.39         -137.9          24.41         -15.93          59.48          144.2
    0.7074              -58.87          37.14          45.39          51.42         -19.73         -11.38         -137.9          24.44         -15.84          59.46          144.2
    0.7467              -58.86          37.13           45.4          51.41         -19.72         -11.38         -137.8          24.46         -15.74          59.44          144.2
     0.786              -58.84          37.12          45.42          51.41         -19.71         -11.38         -137.7          24.48         -15.63          59.41          144.2
    0.8253              -58.83          37.11          45.43           51.4          -19.7         -11.37         -137.6          24.51         -15.51          59.38          144.1
    0.8646              -58.82          37.09          45.45          51.39         -19.69         -11.37         -137.6          24.54         -15.37          59.35          144.1
    0.9039               -58.8          37.07          45.46          51.38         -19.67         -11.36         -137.5          24.58         -15.22          59.32          144.1
    0.9433              -58.78          37.06          45.48          51.36         -19.66         -11.36         -137.3          24.62         -15.05          59.28          144.1
    0.9826              -58.76          37.03           45.5          51.35         -19.64         -11.35         -137.2          24.66         -14.87          59.23          144.1
     1.022              -58.73          37.01          45.53          51.33         -19.62         -11.34         -137.1          24.71         -14.66          59.18          144.1
     1.061              -58.71          36.99          45.56          51.32          -19.6         -11.33         -136.9          24.76         -14.42          59.13          144.1
       1.1              -58.68          36.96          45.59           51.3         -19.57         -11.32         -136.8          24.82         -14.16          59.07          144.1
      1.14              -58.64          36.92          45.62          51.27         -19.55         -11.31         -136.6          24.89         -13.86           59.0          144.1
     1.179              -58.61          36.88          45.66          51.25         -19.51          -11.3         -136.3          24.97         -13.52          58.92          144.1
     1.218              -58.56          36.84          45.71          51.22         -19.48         -11.29         -136.1          25.06         -13.12          58.82          144.1
     1.258              -58.51          36.79          45.76          51.19         -19.44         -11.27         -135.8          25.17         -12.67          58.72          144.1
     1.297              -58.45          36.73          45.82          51.15         -19.39         -11.25         -135.5          25.29         -12.14          58.59          144.1
     1.336              -58.38          36.66          45.89           51.1         -19.33         -11.23         -135.1          25.43         -11.52          58.45          144.0
     1.376               -58.3          36.58          45.97          51.05         -19.26         -11.21         -134.6           25.6         -10.79          58.28          144.0
     1.415               -58.2          36.48          46.07          50.98         -19.18         -11.18         -134.0           25.8         -9.922          58.07          144.0
     1.454              -58.08          36.37          46.19          50.91         -19.09         -11.14         -133.3          26.04         -8.882          57.83          144.0
     1.493              -57.94          36.23          46.34          50.82         -18.97          -11.1         -132.5          26.33         -7.625          57.53          144.0
     1.533              -57.77          36.05          46.51           50.7         -18.83         -11.04         -131.5          26.68         -6.089          57.17          143.9
     1.572              -57.56          35.84          46.73          50.56         -18.65         -10.98         -130.3          27.12         -4.194          56.73          143.9
     1.611              -57.29          35.58           47.0          50.39         -18.43          -10.9         -128.8          27.66          -1.83          56.18          143.8
     1.651              -56.96          35.25          47.34          50.17         -18.16         -10.79         -126.8          28.34          1.147          55.48          143.7
      1.69              -56.53          34.82          47.78          49.89          -17.8         -10.66         -124.4          29.21          4.933          54.59          143.6
     1.729              -55.98          34.28          48.34          49.53         -17.36         -10.49         -121.2          30.33          9.777          53.45          143.5
     1.769              -55.28          33.59          49.05          49.08         -16.78         -10.28         -117.2          31.76          15.99           52.0          143.4
     1.808              -54.39           32.7          49.96          48.49         -16.04          -10.0         -112.0          33.59          23.94          50.13          143.2
     1.847              -53.27          31.58          51.11          47.76         -15.12         -9.655         -105.5          35.88          33.92          47.79          142.9
     1.887               -51.9          30.22          52.51          46.86         -13.99         -9.232         -97.62          38.68          46.09          44.94          142.6
